<svg id="svg" version="1.1" xmlns="http://www.w3.org/2000/svg" fill="#52c07c" xmlns:xlink="http://www.w3.org/1999/xlink" width="10" height="10" viewBox="0, 0, 400,392.9606625258799">
          <g id="svgg">
            <path
              id="path0"
              d="M115.241 51.624 C 108.043 55.533,97.044 63.228,91.364 68.327 C 89.618 69.895,88.689 71.876,86.170 79.406 C 84.585 84.141,84.554 84.145,88.868 79.059 C 93.599 73.483,106.929 60.392,113.471 54.899 C 119.018 50.240,120.235 49.163,119.950 49.166 C 119.848 49.167,117.729 50.273,115.241 51.624 M73.418 86.300 C 71.724 88.318,69.361 91.316,68.168 92.962 L 65.998 95.955 65.044 104.512 C 64.518 109.218,64.138 113.303,64.198 113.590 C 64.496 115.014,69.391 104.709,71.762 97.665 C 73.132 93.595,74.883 88.540,75.654 86.431 C 77.373 81.727,77.264 81.720,73.418 86.300 M53.725 116.457 C 48.408 127.556,45.383 135.671,43.103 144.951 L 42.036 149.293 45.449 159.897 C 49.553 172.645,49.529 172.596,49.550 168.338 C 49.581 161.854,50.993 151.381,52.731 144.739 C 53.482 141.869,56.829 111.761,56.440 111.372 C 56.336 111.269,55.114 113.557,53.725 116.457 M38.959 165.388 C 38.936 165.821,38.743 167.945,38.529 170.108 C 37.101 184.542,38.728 208.489,41.345 211.562 C 42.895 213.382,55.551 225.799,55.702 225.648 C 55.765 225.585,55.116 222.709,54.259 219.257 C 53.402 215.804,52.345 210.501,51.910 207.473 C 51.082 201.713,50.832 200.837,44.151 180.334 C 38.909 164.245,39.004 164.519,38.959 165.388 M328.417 193.314 C 328.417 196.795,328.536 197.837,328.935 197.837 C 329.590 197.837,333.530 196.676,333.530 196.483 C 333.530 196.330,331.487 192.719,330.012 190.265 C 328.647 187.993,328.417 188.432,328.417 193.314 M340.610 193.755 C 337.906 195.831,334.207 198.590,332.389 199.885 C 326.389 204.163,326.434 204.059,329.794 205.893 C 330.875 206.483,332.857 207.577,334.198 208.323 L 336.635 209.681 341.376 199.978 C 343.983 194.641,346.116 190.206,346.116 190.123 C 346.116 189.643,345.038 190.354,340.610 193.755 M241.101 195.870 C 241.101 201.390,241.457 201.786,243.481 198.525 C 244.186 197.389,245.444 195.386,246.276 194.073 C 248.225 190.995,248.323 191.150,244.444 191.150 L 241.101 191.150 241.101 195.870 M321.962 196.979 C 320.484 203.159,320.432 203.023,323.792 201.838 C 326.077 201.032,326.020 201.367,324.675 196.639 C 323.289 191.763,323.206 191.773,321.962 196.979 M250.737 193.962 C 245.877 196.605,245.945 198.292,250.917 198.386 C 254.297 198.449,257.131 195.880,255.650 194.095 C 255.076 193.404,251.920 193.319,250.737 193.962 M347.493 199.232 C 341.437 201.984,341.543 201.879,343.042 203.661 C 344.355 205.221,344.074 205.267,346.784 203.045 C 348.039 202.016,349.685 200.695,350.442 200.110 C 355.921 195.874,355.293 195.688,347.493 199.232 M229.293 199.125 C 212.018 205.016,209.971 230.117,226.069 238.658 C 244.996 248.700,265.801 228.439,255.829 209.677 C 252.868 204.106,250.281 202.360,244.989 202.360 L 241.208 202.360 239.426 200.718 C 236.564 198.082,233.682 197.629,229.293 199.125 M320.173 205.944 C 320.199 207.113,321.966 216.296,322.213 216.543 C 322.641 216.971,335.103 215.786,335.103 215.318 C 335.103 214.511,332.122 210.238,330.747 209.076 C 327.559 206.381,320.135 204.182,320.173 205.944 M312.425 206.644 C 306.633 208.797,305.570 210.312,306.600 214.944 L 307.257 217.896 308.889 217.893 C 310.544 217.889,317.476 217.169,317.664 216.980 C 317.721 216.924,317.424 214.938,317.005 212.569 C 316.586 210.199,316.143 207.684,316.019 206.981 C 315.756 205.480,315.599 205.465,312.425 206.644 M340.610 209.833 C 340.610 213.813,339.977 213.617,347.488 211.961 C 354.475 210.421,354.343 210.462,353.589 210.040 C 353.049 209.737,341.392 206.490,340.846 206.490 C 340.716 206.490,340.610 207.994,340.610 209.833 M300.968 215.831 C 299.195 218.361,299.151 218.683,300.576 218.676 C 302.593 218.667,302.979 218.240,302.663 216.371 C 302.341 214.468,301.999 214.358,300.968 215.831 M328.870 220.476 C 325.766 220.758,323.161 221.054,323.082 221.133 C 323.002 221.213,323.434 223.747,324.041 226.765 L 325.145 232.252 327.076 232.243 C 330.536 232.228,335.564 231.752,335.896 231.408 C 336.756 230.516,337.413 222.952,336.822 220.747 C 336.549 219.729,336.946 219.743,328.870 220.476 M312.157 221.854 C 310.245 222.023,308.599 222.244,308.499 222.343 C 308.232 222.611,310.328 233.371,310.728 233.784 C 311.022 234.088,320.514 233.401,320.866 233.050 C 320.980 232.937,319.144 223.535,318.732 222.124 C 318.509 221.358,317.984 221.337,312.157 221.854 M299.524 222.977 L 297.179 223.206 296.636 224.975 C 296.097 226.734,295.755 234.912,296.202 235.366 C 296.928 236.103,306.444 234.676,306.244 233.861 C 306.134 233.408,305.561 230.693,304.970 227.827 C 303.755 221.922,304.404 222.500,299.524 222.977 M43.884 225.762 C 44.249 227.709,47.869 239.056,48.652 240.708 C 49.011 241.465,50.145 244.031,51.172 246.411 L 53.039 250.737 57.100 252.426 C 59.333 253.354,63.550 254.837,66.470 255.721 C 69.390 256.606,72.045 257.419,72.370 257.528 C 72.694 257.637,70.912 255.623,68.409 253.052 C 63.553 248.064,62.065 246.059,61.267 243.427 C 60.523 240.972,43.490 223.663,43.884 225.762 M272.687 230.342 C 270.214 231.218,268.145 233.369,265.368 237.955 C 263.993 240.226,261.593 244.031,260.035 246.411 C 255.697 253.036,254.748 257.357,256.431 262.806 C 261.216 278.299,284.021 276.422,286.345 260.344 C 287.180 254.564,286.819 238.187,285.805 235.901 C 283.620 230.974,277.829 228.520,272.687 230.342 M329.211 236.457 C 325.579 236.911,325.852 236.435,326.658 240.909 L 327.340 244.700 328.912 243.195 C 330.297 241.870,333.923 236.818,333.923 236.214 C 333.923 235.936,332.997 235.984,329.211 236.457 M320.518 237.324 C 320.428 237.409,318.410 237.687,316.034 237.940 C 313.658 238.194,311.659 238.456,311.592 238.523 C 311.418 238.696,313.535 249.615,313.837 250.103 C 314.560 251.273,323.929 248.006,323.552 246.714 C 323.441 246.331,322.960 244.027,322.485 241.593 C 321.716 237.659,321.244 236.634,320.518 237.324 M302.655 239.190 C 300.708 239.379,298.715 239.624,298.226 239.736 L 297.338 239.938 298.171 241.572 C 299.458 244.093,302.686 247.250,305.327 248.570 C 309.310 250.560,309.610 250.300,308.586 245.747 C 308.279 244.382,307.824 242.247,307.575 241.003 C 307.317 239.715,306.923 238.764,306.658 238.794 C 306.403 238.824,304.602 239.002,302.655 239.190 M341.150 241.796 C 340.906 241.955,340.222 243.324,339.630 244.838 C 330.003 269.456,314.917 281.596,293.019 282.346 L 285.742 282.596 285.742 283.575 C 285.742 284.707,286.334 285.049,292.625 287.547 C 317.643 297.483,333.622 289.237,339.949 263.127 C 341.838 255.331,343.373 242.387,342.475 241.817 C 341.871 241.434,341.709 241.431,341.150 241.796 M210.423 243.966 C 210.423 244.284,213.296 254.799,215.282 261.750 C 216.457 265.860,218.249 272.232,219.265 275.910 C 220.281 279.587,221.356 283.337,221.654 284.243 C 221.953 285.149,222.822 288.247,223.587 291.126 C 224.352 294.006,225.508 298.309,226.156 300.688 C 226.805 303.068,227.606 306.155,227.937 307.549 C 228.268 308.943,229.076 311.686,229.733 313.645 C 230.390 315.605,231.273 318.712,231.695 320.551 C 232.117 322.389,232.720 324.779,233.035 325.860 C 236.094 336.381,237.644 341.609,237.726 341.692 C 237.781 341.747,239.934 341.104,242.512 340.263 C 259.783 334.631,279.276 323.484,293.537 311.085 L 298.578 306.702 295.613 304.679 C 292.388 302.477,286.227 298.056,276.106 290.681 C 272.537 288.080,267.935 284.797,265.880 283.385 C 263.825 281.974,260.462 279.572,258.407 278.048 C 256.352 276.524,254.387 275.154,254.040 275.003 C 253.694 274.853,252.809 274.256,252.074 273.676 C 249.638 271.756,244.106 267.671,242.049 266.273 C 239.764 264.720,233.268 260.047,217.699 248.754 C 212.592 245.050,210.423 243.623,210.423 243.966 M202.467 245.280 C 202.269 245.625,201.768 247.881,199.198 259.980 C 198.440 263.550,197.654 266.824,197.451 267.257 C 197.248 267.689,195.904 273.884,194.464 281.023 C 193.024 288.161,191.328 296.303,190.695 299.115 C 188.766 307.684,186.911 316.278,184.455 328.024 C 183.165 334.189,182.025 339.587,181.920 340.020 C 181.614 341.279,180.972 344.601,180.693 346.367 L 180.436 347.995 187.001 348.284 C 199.504 348.836,212.889 347.695,224.779 345.063 C 230.617 343.771,230.301 344.114,229.285 340.173 C 228.817 338.358,228.283 336.165,228.097 335.300 C 227.728 333.578,226.889 330.713,224.987 324.680 C 224.305 322.517,223.245 318.712,222.632 316.224 C 221.323 310.913,218.674 301.362,217.513 297.771 C 217.064 296.383,216.083 292.932,215.333 290.102 C 213.400 282.811,212.651 280.119,211.002 274.533 C 209.110 268.126,207.693 262.960,205.449 254.280 C 203.552 246.946,202.805 244.690,202.467 245.280 M274.336 248.915 C 279.557 251.295,281.498 256.506,279.017 261.484 C 275.251 269.041,263.762 267.487,261.981 259.179 C 260.435 251.973,267.737 245.907,274.336 248.915 M186.761 261.849 C 184.073 264.390,177.738 270.364,172.684 275.123 C 151.890 294.701,134.245 311.464,126.473 319.024 C 122.999 322.403,119.404 325.854,118.483 326.694 L 116.810 328.220 120.199 330.159 C 131.999 336.906,151.778 343.706,167.220 346.323 C 172.545 347.226,172.738 347.170,173.349 344.543 C 173.810 342.563,177.129 326.863,178.172 321.731 C 178.413 320.541,178.769 319.213,178.961 318.781 C 179.154 318.348,180.492 312.153,181.934 305.015 C 183.376 297.876,185.074 289.735,185.708 286.922 C 188.420 274.883,192.003 257.227,191.734 257.227 C 191.687 257.227,189.449 259.307,186.761 261.849 M53.097 259.410 C 53.097 261.904,65.927 282.565,72.028 289.897 L 73.918 292.167 75.995 291.588 C 78.105 291.000,86.754 288.741,91.052 287.655 C 93.853 286.948,93.440 287.055,99.115 285.544 C 101.603 284.882,105.320 283.827,107.375 283.200 C 109.430 282.573,112.040 281.838,113.176 281.566 C 114.312 281.293,115.241 280.954,115.241 280.812 C 115.241 280.493,109.798 278.489,100.492 275.381 C 96.598 274.081,91.200 272.203,88.496 271.207 C 82.374 268.953,80.745 268.398,79.253 268.056 C 78.604 267.908,77.542 267.549,76.893 267.259 C 76.244 266.969,73.766 266.068,71.386 265.256 C 69.007 264.445,66.883 263.657,66.667 263.506 C 66.221 263.196,59.945 261.143,56.553 260.199 C 55.318 259.855,54.034 259.469,53.702 259.342 C 53.369 259.214,53.097 259.245,53.097 259.410 M154.376 278.294 C 149.045 279.815,140.886 281.996,130.187 284.760 C 122.324 286.791,113.550 289.169,106.981 291.048 C 104.710 291.698,100.922 292.693,98.564 293.259 C 96.207 293.825,93.710 294.525,93.017 294.815 C 92.323 295.105,89.385 295.951,86.487 296.696 C 83.590 297.441,80.809 298.210,80.307 298.405 C 78.480 299.115,94.250 313.419,105.275 321.051 C 110.561 324.711,109.765 324.689,113.304 321.268 C 114.910 319.715,118.348 316.388,120.944 313.873 C 123.540 311.359,126.460 308.620,127.434 307.787 C 129.686 305.861,140.584 295.526,149.252 287.096 C 152.935 283.515,156.834 279.758,157.915 278.748 C 160.244 276.573,160.356 276.588,154.376 278.294 "
              stroke="none"
              fill-rule="evenodd"
            ></path>
            <path
              id="path1"
              d="M0.000 196.657 L 0.000 393.314 200.000 393.314 L 400.000 393.314 400.000 196.657 L 400.000 0.000 200.000 0.000 L 0.000 0.000 0.000 196.657 M119.113 50.619 C 108.586 59.293,94.903 72.489,87.906 80.716 C 84.524 84.692,83.153 85.741,84.321 83.459 C 84.619 82.876,85.774 79.656,86.888 76.303 C 89.256 69.176,88.770 70.022,92.232 67.006 C 98.725 61.350,109.274 54.232,118.191 49.489 C 123.144 46.855,123.360 47.120,119.113 50.619 M75.087 89.323 C 69.893 104.173,69.034 106.378,66.952 110.195 C 63.255 116.972,63.346 117.138,64.498 105.728 L 65.507 95.745 67.446 93.202 C 71.950 87.297,77.460 80.869,77.761 81.169 C 77.833 81.242,76.630 84.911,75.087 89.323 M56.560 116.099 C 56.173 119.196,55.326 126.598,54.677 132.547 C 54.028 138.496,53.064 145.360,52.536 147.801 C 51.245 153.760,50.397 160.543,50.086 167.394 C 49.944 170.509,49.723 173.058,49.593 173.058 C 49.306 173.058,41.677 149.899,41.689 149.066 C 41.758 144.276,49.140 124.185,54.506 114.181 C 57.256 109.053,57.419 109.206,56.560 116.099 M42.663 174.435 C 44.338 179.626,47.022 187.808,48.626 192.616 C 51.053 199.892,51.671 202.283,52.311 206.882 C 53.215 213.386,54.802 221.306,55.816 224.381 C 56.917 227.716,56.572 227.475,48.010 218.905 L 40.024 210.912 39.491 207.619 C 37.300 194.096,37.000 176.494,38.776 165.632 C 39.104 163.625,39.369 164.227,42.663 174.435 M331.682 192.187 C 334.439 196.741,334.423 196.980,331.306 197.858 C 328.102 198.761,328.024 198.653,328.024 193.301 C 328.024 186.992,328.458 186.860,331.682 192.187 M346.509 189.944 C 346.509 190.146,345.287 192.879,343.793 196.017 C 340.658 202.602,340.222 202.326,347.924 198.620 C 356.278 194.601,356.818 195.334,349.787 201.150 C 344.014 205.926,344.389 205.795,342.385 203.742 L 340.854 202.175 338.742 206.103 C 336.751 209.804,336.579 210.006,335.768 209.585 C 331.941 207.600,326.450 204.398,326.450 204.152 C 326.450 203.910,336.863 195.863,342.000 192.134 C 342.596 191.701,343.624 190.949,344.283 190.462 C 345.531 189.541,346.509 189.313,346.509 189.944 M247.296 190.612 C 248.699 190.988,248.375 191.907,245.221 196.488 C 241.256 202.247,240.938 202.217,240.793 196.071 C 240.657 190.347,242.025 189.199,247.296 190.612 M324.954 195.846 C 326.864 201.717,326.800 201.865,321.996 202.766 C 320.224 203.099,320.233 203.201,321.544 197.577 C 323.084 190.972,323.328 190.849,324.954 195.846 M256.298 194.007 C 257.142 194.889,256.059 197.103,254.277 198.140 C 251.843 199.555,246.608 198.831,246.608 197.080 C 246.608 194.509,254.410 192.034,256.298 194.007 M236.701 198.304 C 237.418 198.522,238.816 199.490,239.808 200.454 L 241.612 202.207 244.692 201.938 C 258.410 200.742,263.690 224.077,252.237 235.284 C 246.799 240.605,238.775 242.950,231.707 241.284 C 211.711 236.571,208.194 209.584,226.341 200.120 C 231.152 197.611,233.228 197.247,236.701 198.304 M325.778 205.733 C 329.367 207.169,333.137 210.498,334.738 213.644 L 335.878 215.883 334.212 216.091 C 331.440 216.437,322.038 217.155,321.915 217.030 C 321.851 216.965,321.414 214.966,320.943 212.586 C 320.473 210.206,319.942 207.553,319.765 206.690 C 319.587 205.826,319.505 205.017,319.583 204.891 C 319.798 204.543,324.350 205.161,325.778 205.733 M316.441 206.785 C 316.579 207.596,317.030 209.969,317.442 212.058 C 318.365 216.738,318.372 217.397,317.502 217.650 C 316.971 217.804,309.492 218.415,307.391 218.475 C 307.034 218.485,305.661 212.689,305.623 211.010 C 305.590 209.568,312.734 205.383,315.321 205.328 C 316.021 205.313,316.237 205.594,316.441 206.785 M346.116 207.461 C 348.171 208.054,350.792 208.802,351.940 209.122 C 355.375 210.082,354.639 210.743,348.476 212.231 C 345.556 212.936,342.547 213.570,341.790 213.639 L 340.413 213.766 340.300 209.884 L 340.187 206.003 341.283 206.192 C 341.886 206.297,344.061 206.868,346.116 207.461 M303.123 216.324 C 303.579 219.154,303.639 219.076,301.016 219.076 C 298.527 219.076,298.492 218.920,300.351 216.120 C 302.187 213.354,302.650 213.388,303.123 216.324 M337.118 221.632 C 337.388 223.796,336.817 230.271,336.266 231.300 C 336.007 231.785,335.086 232.023,332.659 232.232 C 330.867 232.386,328.561 232.670,327.536 232.863 C 326.510 233.056,325.440 233.125,325.158 233.016 C 324.634 232.815,322.313 221.115,322.717 220.711 C 322.986 220.442,333.252 219.548,335.300 219.614 L 336.873 219.666 337.118 221.632 M320.204 227.139 C 320.792 230.383,321.155 233.157,321.010 233.301 C 320.769 233.543,315.428 234.232,311.723 234.500 L 310.172 234.612 308.923 228.385 C 307.950 223.536,307.786 222.115,308.179 221.964 C 309.161 221.588,314.094 221.131,316.598 221.184 L 319.135 221.239 320.204 227.139 M305.475 228.515 C 306.161 231.868,306.603 234.716,306.458 234.844 C 305.414 235.767,295.946 236.223,295.617 235.366 C 294.835 233.328,295.951 223.824,297.052 223.144 C 297.564 222.827,301.837 222.291,303.245 222.366 C 304.192 222.417,304.275 222.646,305.475 228.515 M52.223 232.557 C 59.399 239.739,61.055 241.601,61.404 242.882 C 61.910 244.741,64.265 248.755,65.261 249.455 C 66.483 250.314,73.665 258.030,73.446 258.249 C 73.250 258.444,67.223 256.485,65.487 255.662 C 65.054 255.457,62.222 254.473,59.194 253.475 C 53.175 251.492,52.709 251.213,51.811 249.054 C 51.476 248.249,50.493 245.910,49.626 243.854 C 48.759 241.799,47.789 239.233,47.470 238.151 C 47.151 237.070,46.361 234.857,45.714 233.235 C 44.745 230.802,42.871 224.709,42.871 223.988 C 42.871 223.325,44.373 224.702,52.223 232.557 M281.288 230.590 C 286.787 233.836,287.187 235.075,287.137 248.706 C 287.085 262.825,286.705 264.620,282.914 268.673 C 269.298 283.230,247.213 265.625,258.103 248.894 C 258.992 247.528,260.284 245.422,260.973 244.213 C 268.983 230.161,274.404 226.526,281.288 230.590 M334.565 236.193 C 333.753 238.309,328.186 245.034,327.246 245.034 C 326.942 245.034,326.376 242.361,325.818 238.286 L 325.567 236.455 328.270 236.192 C 329.757 236.047,331.150 235.868,331.367 235.793 C 332.629 235.356,334.782 235.625,334.565 236.193 M321.905 237.266 C 323.147 241.338,324.124 247.133,323.646 247.590 C 321.912 249.246,314.683 251.516,313.836 250.670 C 313.287 250.120,310.783 238.532,311.142 238.197 C 311.296 238.054,319.486 236.914,321.055 236.818 C 321.440 236.794,321.823 236.996,321.905 237.266 M308.605 243.528 C 309.123 245.979,309.659 248.579,309.797 249.307 L 310.048 250.629 308.757 250.345 C 304.222 249.349,299.641 245.640,297.754 241.436 C 296.850 239.421,296.536 239.588,302.357 238.986 C 307.922 238.411,307.454 238.071,308.605 243.528 M342.956 241.675 C 343.325 242.120,343.333 243.381,342.992 247.280 C 340.082 280.513,325.888 296.146,303.060 291.262 C 294.290 289.386,285.055 285.303,285.237 283.382 L 285.349 282.203 292.232 281.956 C 314.639 281.155,331.021 268.254,339.089 245.055 C 340.387 241.324,341.707 240.170,342.956 241.675 M216.252 247.251 C 219.427 249.551,222.999 252.175,224.189 253.081 C 225.379 253.987,227.768 255.666,229.499 256.812 C 231.229 257.959,233.353 259.469,234.218 260.170 C 235.084 260.870,237.207 262.409,238.938 263.590 C 240.669 264.771,244.232 267.318,246.856 269.250 C 256.682 276.485,259.974 278.859,260.177 278.859 C 260.363 278.859,265.471 282.467,266.470 283.304 C 266.686 283.485,269.430 285.480,272.566 287.737 C 275.703 289.994,280.747 293.640,283.776 295.839 C 286.804 298.038,290.964 300.984,293.019 302.386 C 298.296 305.985,298.499 306.143,298.513 306.647 C 298.541 307.669,287.713 316.809,281.416 321.080 C 269.156 329.395,258.014 335.105,244.783 339.854 C 236.718 342.750,237.456 342.848,236.412 338.741 C 235.930 336.849,234.843 333.088,233.997 330.383 C 233.151 327.679,231.947 323.520,231.322 321.141 C 229.043 312.465,227.659 307.315,226.880 304.621 C 226.442 303.107,224.860 297.443,223.364 292.035 C 219.482 278.001,218.560 274.706,216.597 267.847 C 215.638 264.494,214.194 259.272,213.388 256.244 C 212.582 253.215,211.432 249.106,210.832 247.113 C 209.281 241.961,208.938 241.952,216.252 247.251 M203.531 246.509 C 203.881 247.753,204.681 250.452,205.308 252.507 C 205.936 254.562,207.445 259.961,208.662 264.503 C 211.318 274.414,212.325 278.004,214.119 283.972 C 214.868 286.460,216.037 290.619,216.718 293.215 C 219.189 302.634,220.305 306.615,220.854 307.965 C 221.163 308.722,221.786 310.846,222.240 312.684 C 223.516 317.848,228.042 334.391,229.546 339.387 C 231.159 344.744,231.796 343.998,224.295 345.533 C 212.208 348.006,200.235 349.082,188.807 348.722 C 179.691 348.435,179.939 348.526,180.481 345.674 C 182.125 337.026,186.897 314.303,187.203 313.668 C 187.411 313.235,188.022 310.669,188.559 307.965 C 191.387 293.745,194.735 277.758,195.066 276.893 C 195.438 275.918,196.116 272.750,199.611 255.654 C 202.200 242.993,202.406 242.513,203.531 246.509 M267.650 249.120 C 259.282 252.776,261.110 264.950,270.149 265.770 C 280.314 266.692,283.396 252.550,273.780 249.113 C 271.960 248.462,269.149 248.466,267.650 249.120 M192.328 257.325 C 192.326 257.812,191.708 260.954,190.954 264.307 C 190.199 267.660,189.581 270.715,189.580 271.097 C 189.578 271.478,189.403 272.098,189.191 272.473 C 188.979 272.849,188.368 275.369,187.835 278.073 C 185.941 287.664,181.702 307.800,181.127 309.931 C 180.806 311.121,179.209 318.637,177.579 326.632 C 175.948 334.628,174.233 342.558,173.768 344.253 L 172.924 347.336 170.729 347.079 C 159.159 345.724,145.751 342.018,132.153 336.416 C 127.378 334.449,116.408 328.687,116.550 328.220 C 116.648 327.898,152.934 293.184,172.927 274.285 C 175.703 271.661,181.072 266.576,184.857 262.985 C 192.130 256.086,192.332 255.933,192.328 257.325 M56.891 259.823 C 59.023 260.602,65.457 262.809,71.190 264.729 C 76.922 266.649,81.978 268.413,82.425 268.650 C 82.871 268.888,87.562 270.551,92.848 272.347 C 120.039 281.586,118.597 280.888,113.078 282.145 C 109.008 283.073,98.398 285.891,96.362 286.585 C 94.540 287.207,94.005 287.351,82.006 290.447 C 78.112 291.452,74.637 292.358,74.284 292.461 C 72.518 292.978,60.582 275.323,54.524 263.232 C 51.636 257.466,51.394 257.815,56.891 259.823 M159.845 277.339 C 159.146 278.122,137.956 298.405,131.364 304.600 C 129.741 306.126,124.962 310.668,120.745 314.694 C 110.124 324.832,110.364 324.637,109.262 324.052 C 100.491 319.401,77.460 299.361,79.462 298.124 C 79.756 297.942,81.599 297.409,83.558 296.938 C 89.497 295.513,101.443 292.301,105.408 291.064 C 107.463 290.423,113.392 288.816,118.584 287.493 C 123.776 286.170,128.997 284.773,130.187 284.388 C 131.377 284.003,136.952 282.491,142.576 281.027 C 148.201 279.563,154.218 277.964,155.949 277.473 C 160.263 276.250,160.834 276.230,159.845 277.339 "
              stroke="none"
              fill="none"
              fill-rule="evenodd"
            ></path>
            <path
              id="path2"
              d="M98.715 68.732 L 94.199 73.353 98.820 68.836 C 103.113 64.641,103.620 64.110,103.337 64.110 C 103.279 64.110,101.199 66.190,98.715 68.732 M49.649 166.765 C 49.649 167.522,49.730 167.832,49.829 167.453 C 49.928 167.075,49.928 166.455,49.829 166.077 C 49.730 165.698,49.649 166.008,49.649 166.765 M37.849 176.991 C 37.849 177.748,37.930 178.058,38.029 177.679 C 38.128 177.301,38.128 176.681,38.029 176.303 C 37.930 175.924,37.849 176.234,37.849 176.991 M37.849 190.757 C 37.849 191.514,37.930 191.824,38.029 191.445 C 38.128 191.067,38.128 190.447,38.029 190.069 C 37.930 189.690,37.849 190.000,37.849 190.757 M344.917 192.762 C 344.465 193.648,344.162 194.441,344.244 194.523 C 344.327 194.606,344.779 193.880,345.250 192.912 C 346.322 190.705,346.032 190.575,344.917 192.762 M320.649 205.188 C 321.028 205.286,321.647 205.286,322.026 205.188 C 322.404 205.089,322.094 205.008,321.337 205.008 C 320.580 205.008,320.270 205.089,320.649 205.188 M334.710 219.621 C 334.710 219.705,335.232 219.850,335.869 219.943 C 336.507 220.037,336.939 219.968,336.829 219.791 C 336.634 219.476,334.710 219.321,334.710 219.621 M50.344 231.072 C 54.125 234.857,57.307 237.955,57.415 237.955 C 57.524 237.955,54.518 234.857,50.737 231.072 C 46.956 227.286,43.774 224.189,43.666 224.189 C 43.558 224.189,46.563 227.286,50.344 231.072 M286.887 249.164 C 286.886 252.842,286.945 254.399,287.018 252.625 C 287.091 250.851,287.091 247.842,287.019 245.939 C 286.947 244.035,286.887 245.487,286.887 249.164 M67.650 252.237 C 67.650 252.305,68.225 252.880,68.928 253.515 L 70.206 254.671 69.051 253.392 C 67.974 252.201,67.650 251.933,67.650 252.237 M255.382 258.210 C 255.385 259.508,255.458 259.992,255.546 259.285 C 255.633 258.578,255.631 257.516,255.542 256.925 C 255.452 256.334,255.380 256.912,255.382 258.210 M324.470 268.928 L 322.321 271.190 324.582 269.040 C 326.683 267.043,327.024 266.667,326.732 266.667 C 326.670 266.667,325.653 267.684,324.470 268.928 M174.410 273.058 L 173.255 274.336 174.533 273.181 C 175.724 272.104,175.992 271.780,175.688 271.780 C 175.620 271.780,175.045 272.355,174.410 273.058 M286.829 282.288 C 287.427 282.379,288.312 282.376,288.796 282.283 C 289.280 282.189,288.791 282.115,287.709 282.118 C 286.627 282.121,286.232 282.198,286.829 282.288 M159.476 287.217 L 157.129 289.676 159.587 287.328 C 161.870 285.147,162.225 284.759,161.935 284.759 C 161.874 284.759,160.768 285.865,159.476 287.217 M145.898 290.560 L 144.543 292.035 146.018 290.680 C 147.391 289.418,147.673 289.086,147.373 289.086 C 147.307 289.086,146.644 289.749,145.898 290.560 M151.612 294.690 L 148.869 297.542 151.721 294.799 C 154.369 292.252,154.752 291.839,154.463 291.839 C 154.404 291.839,153.120 293.122,151.612 294.690 M143.559 302.262 C 141.948 303.884,140.718 305.211,140.826 305.211 C 140.934 305.211,142.341 303.884,143.953 302.262 C 145.564 300.639,146.794 299.312,146.686 299.312 C 146.578 299.312,145.171 300.639,143.559 302.262 M137.045 308.456 L 135.890 309.735 137.168 308.579 C 138.360 307.503,138.627 307.178,138.323 307.178 C 138.256 307.178,137.680 307.753,137.045 308.456 M176.423 330.209 C 176.275 330.998,176.232 331.722,176.329 331.819 C 176.425 331.915,176.625 331.348,176.773 330.558 C 176.921 329.769,176.963 329.044,176.867 328.948 C 176.771 328.852,176.571 329.419,176.423 330.209 "
              stroke="none"
              fill="#6ee6ac"
              fill-rule="evenodd"
            ></path>
            <path
              id="path3"
              d="M109.906 58.309 L 108.751 59.587 110.029 58.432 C 111.221 57.355,111.489 57.030,111.185 57.030 C 111.117 57.030,110.542 57.606,109.906 58.309 M104.803 63.029 L 102.852 65.093 104.916 63.142 C 106.052 62.068,106.981 61.139,106.981 61.077 C 106.981 60.783,106.617 61.110,104.803 63.029 M92.607 75.221 L 91.052 76.893 92.724 75.338 C 93.643 74.483,94.395 73.731,94.395 73.666 C 94.395 73.369,94.053 73.667,92.607 75.221 M75.688 83.088 L 74.533 84.366 75.811 83.211 C 77.003 82.134,77.270 81.809,76.966 81.809 C 76.899 81.809,76.323 82.384,75.688 83.088 M84.044 83.927 C 83.916 84.263,83.967 84.634,84.159 84.753 C 84.661 85.063,84.960 84.419,84.591 83.822 C 84.347 83.427,84.227 83.450,84.044 83.927 M44.694 158.899 C 44.826 159.440,45.177 160.413,45.472 161.062 C 45.904 162.010,45.962 162.048,45.768 161.259 C 45.636 160.718,45.285 159.744,44.990 159.095 C 44.558 158.148,44.500 158.109,44.694 158.899 M50.063 163.815 C 50.066 164.897,50.143 165.293,50.233 164.695 C 50.323 164.097,50.321 163.212,50.228 162.728 C 50.134 162.244,50.060 162.734,50.063 163.815 M49.493 170.502 C 49.420 171.909,49.494 173.059,49.656 173.059 C 49.818 173.058,49.951 171.908,49.951 170.501 C 49.951 167.200,49.663 167.201,49.493 170.502 M37.865 174.238 C 37.865 175.211,37.942 175.610,38.036 175.123 C 38.129 174.636,38.129 173.840,38.036 173.353 C 37.942 172.866,37.865 173.265,37.865 174.238 M37.500 183.481 C 37.501 185.211,37.570 185.870,37.653 184.945 C 37.736 184.020,37.735 182.604,37.651 181.799 C 37.566 180.993,37.498 181.750,37.500 183.481 M328.174 193.314 C 328.175 195.910,328.238 196.920,328.315 195.560 C 328.392 194.199,328.392 192.075,328.314 190.840 C 328.236 189.605,328.173 190.718,328.174 193.314 M242.961 190.648 C 243.659 190.735,244.898 190.736,245.714 190.651 C 246.530 190.566,245.959 190.495,244.444 190.493 C 242.930 190.491,242.263 190.561,242.961 190.648 M240.970 191.019 C 240.608 191.382,240.638 200.500,241.003 200.726 C 241.165 200.826,241.298 198.624,241.298 195.833 C 241.298 193.041,241.283 190.757,241.265 190.757 C 241.247 190.757,241.114 190.875,240.970 191.019 M37.865 193.510 C 37.865 194.484,37.942 194.882,38.036 194.395 C 38.129 193.909,38.129 193.112,38.036 192.625 C 37.942 192.139,37.865 192.537,37.865 193.510 M48.439 192.724 C 48.439 193.048,48.765 194.199,49.164 195.280 C 49.563 196.362,49.890 196.981,49.890 196.657 C 49.890 196.332,49.563 195.182,49.164 194.100 C 48.765 193.019,48.439 192.399,48.439 192.724 M351.229 197.050 C 350.472 197.465,349.994 197.811,350.167 197.820 C 350.584 197.842,352.802 196.689,352.802 196.450 C 352.802 196.193,352.779 196.201,351.229 197.050 M341.141 201.282 C 341.284 201.514,341.217 201.764,340.993 201.839 C 340.768 201.914,341.431 202.769,342.465 203.741 L 344.345 205.506 342.826 203.870 C 341.990 202.970,341.418 202.053,341.554 201.833 C 341.691 201.612,341.595 201.303,341.342 201.146 C 341.067 200.977,340.986 201.032,341.141 201.282 M319.819 207.276 C 319.819 207.601,319.971 208.220,320.157 208.653 C 320.370 209.149,320.495 209.221,320.495 208.850 C 320.495 208.525,320.343 207.906,320.157 207.473 C 319.944 206.977,319.819 206.904,319.819 207.276 M47.959 218.759 C 54.981 225.870,56.637 227.302,56.637 226.263 C 56.637 226.132,56.513 226.149,56.360 226.301 C 56.208 226.453,52.447 222.987,48.002 218.599 L 39.921 210.619 47.959 218.759 M314.946 217.780 C 315.433 217.874,316.229 217.874,316.716 217.780 C 317.203 217.686,316.804 217.610,315.831 217.610 C 314.857 217.610,314.459 217.686,314.946 217.780 M310.226 218.173 C 310.713 218.267,311.509 218.267,311.996 218.173 C 312.483 218.080,312.085 218.003,311.111 218.003 C 310.138 218.003,309.739 218.080,310.226 218.173 M301.672 218.682 L 299.902 218.958 301.550 219.017 C 302.457 219.049,303.308 218.899,303.441 218.682 C 303.575 218.466,303.630 218.316,303.563 218.348 C 303.496 218.381,302.645 218.531,301.672 218.682 M324.390 220.534 C 324.879 220.628,325.587 220.624,325.963 220.526 C 326.339 220.427,325.939 220.350,325.074 220.355 C 324.208 220.359,323.901 220.440,324.390 220.534 M314.755 221.325 C 315.353 221.415,316.237 221.413,316.721 221.319 C 317.205 221.226,316.716 221.152,315.634 221.155 C 314.553 221.158,314.157 221.234,314.755 221.325 M310.624 221.714 C 311.113 221.808,311.821 221.804,312.197 221.706 C 312.573 221.607,312.173 221.530,311.308 221.535 C 310.442 221.539,310.135 221.620,310.624 221.714 M44.080 228.347 C 44.039 228.941,45.287 232.523,45.471 232.340 C 45.554 232.257,45.281 231.229,44.865 230.057 C 44.449 228.885,44.096 228.115,44.080 228.347 M295.520 231.662 C 295.520 233.717,295.587 234.558,295.668 233.530 C 295.749 232.502,295.749 230.821,295.668 229.794 C 295.587 228.766,295.520 229.607,295.520 231.662 M253.073 234.120 L 251.917 235.398 253.196 234.243 C 253.899 233.608,254.474 233.032,254.474 232.965 C 254.474 232.661,254.149 232.928,253.073 234.120 M316.716 233.899 C 317.094 233.998,317.714 233.998,318.092 233.899 C 318.471 233.801,318.161 233.720,317.404 233.720 C 316.647 233.720,316.337 233.801,316.716 233.899 M312.984 234.300 C 313.473 234.394,314.181 234.390,314.557 234.292 C 314.933 234.193,314.533 234.116,313.668 234.121 C 312.802 234.125,312.495 234.206,312.984 234.300 M331.563 235.750 C 331.563 235.836,332.271 235.973,333.137 236.056 C 334.002 236.138,334.710 236.068,334.710 235.900 C 334.710 235.732,334.002 235.595,333.137 235.595 C 332.271 235.595,331.563 235.665,331.563 235.750 M328.515 236.259 C 328.894 236.358,329.513 236.358,329.892 236.259 C 330.270 236.160,329.961 236.079,329.204 236.079 C 328.446 236.079,328.137 236.160,328.515 236.259 M317.109 237.439 C 317.488 237.538,318.107 237.538,318.486 237.439 C 318.864 237.340,318.555 237.259,317.797 237.259 C 317.040 237.259,316.731 237.340,317.109 237.439 M264.398 238.643 C 263.380 240.114,263.049 240.708,263.248 240.708 C 263.340 240.708,263.884 240.000,264.457 239.135 C 265.621 237.376,265.570 236.951,264.398 238.643 M58.981 239.626 C 59.945 240.654,60.786 241.495,60.849 241.495 C 61.144 241.495,60.832 241.141,59.095 239.512 L 57.227 237.758 58.981 239.626 M235.114 241.783 C 236.039 241.866,237.455 241.865,238.260 241.780 C 239.066 241.696,238.309 241.628,236.578 241.629 C 234.848 241.631,234.189 241.700,235.114 241.783 M210.518 243.297 C 210.646 243.505,211.593 244.279,212.623 245.018 C 213.652 245.757,214.389 246.192,214.261 245.985 C 214.132 245.777,213.185 245.003,212.156 244.264 C 211.127 243.525,210.390 243.090,210.518 243.297 M299.705 244.764 C 299.705 244.832,300.280 245.407,300.983 246.042 L 302.262 247.198 301.106 245.919 C 300.030 244.728,299.705 244.460,299.705 244.764 M271.484 248.608 C 273.811 248.949,274.923 249.382,276.322 250.492 C 276.765 250.843,276.642 250.655,276.048 250.073 C 274.843 248.894,272.679 248.162,270.600 248.231 C 269.578 248.265,269.806 248.362,271.484 248.608 M309.538 249.328 C 309.538 249.743,309.317 250.171,309.046 250.280 C 308.753 250.399,308.832 250.491,309.243 250.510 C 309.723 250.531,309.931 250.244,309.931 249.558 C 309.931 249.017,309.843 248.574,309.735 248.574 C 309.626 248.574,309.538 248.913,309.538 249.328 M265.179 250.442 C 264.238 251.362,264.223 251.407,265.074 250.743 C 266.753 249.436,266.833 249.361,266.555 249.361 C 266.407 249.361,265.788 249.848,265.179 250.442 M70.010 254.597 C 70.010 254.665,70.585 255.240,71.288 255.875 L 72.566 257.030 71.411 255.752 C 70.334 254.561,70.010 254.293,70.010 254.597 M262.046 257.030 C 262.050 257.896,262.131 258.203,262.225 257.714 C 262.319 257.225,262.316 256.517,262.217 256.141 C 262.119 255.765,262.042 256.165,262.046 257.030 M279.753 257.227 C 279.753 258.201,279.830 258.599,279.924 258.112 C 280.017 257.625,280.017 256.829,279.924 256.342 C 279.830 255.855,279.753 256.254,279.753 257.227 M190.536 257.719 L 189.381 258.997 190.755 257.817 C 191.511 257.168,192.204 256.593,192.296 256.539 C 192.387 256.485,192.288 256.441,192.076 256.441 C 191.864 256.441,191.171 257.016,190.536 257.719 M72.014 258.046 C 72.692 258.474,73.550 258.512,73.549 258.112 C 73.549 257.950,73.080 257.790,72.506 257.757 C 71.759 257.713,71.620 257.796,72.014 258.046 M231.268 258.157 C 231.268 258.265,231.799 258.732,232.448 259.194 C 233.097 259.656,233.628 259.945,233.628 259.837 C 233.628 259.729,233.097 259.262,232.448 258.800 C 231.799 258.338,231.268 258.049,231.268 258.157 M52.311 258.824 C 52.311 259.053,52.467 259.144,52.658 259.026 C 52.849 258.908,54.028 259.163,55.279 259.593 C 56.530 260.024,57.622 260.306,57.707 260.222 C 57.862 260.066,53.218 258.407,52.628 258.407 C 52.453 258.407,52.311 258.595,52.311 258.824 M184.464 263.324 C 182.853 264.946,181.622 266.273,181.731 266.273 C 181.839 266.273,183.246 264.946,184.857 263.324 C 186.469 261.701,187.699 260.374,187.591 260.374 C 187.483 260.374,186.076 261.701,184.464 263.324 M190.954 262.734 C 190.804 263.413,190.764 264.052,190.864 264.152 C 190.965 264.252,191.160 263.769,191.298 263.078 C 191.626 261.438,191.308 261.120,190.954 262.734 M242.422 266.184 C 242.734 266.687,245.034 268.390,245.034 268.117 C 245.034 268.020,244.385 267.444,243.591 266.839 C 242.796 266.233,242.271 265.938,242.422 266.184 M76.141 266.633 C 76.606 267.062,80.631 268.369,80.840 268.160 C 80.928 268.072,79.826 267.618,78.391 267.151 C 76.956 266.685,75.943 266.452,76.141 266.633 M177.566 269.912 L 175.615 271.976 177.679 270.025 C 178.815 268.951,179.744 268.022,179.744 267.960 C 179.744 267.666,179.380 267.993,177.566 269.912 M269.518 274.017 C 269.897 274.116,270.516 274.116,270.895 274.017 C 271.273 273.919,270.964 273.838,270.206 273.838 C 269.449 273.838,269.140 273.919,269.518 274.017 M100.295 275.123 C 102.091 275.814,102.797 275.804,101.278 275.109 C 100.629 274.812,99.833 274.574,99.508 274.581 C 99.184 274.587,99.538 274.831,100.295 275.123 M168.916 278.171 L 166.568 280.629 169.027 278.282 C 171.310 276.101,171.665 275.713,171.374 275.713 C 171.313 275.713,170.207 276.819,168.916 278.171 M194.515 278.685 C 194.367 279.474,194.325 280.198,194.421 280.295 C 194.517 280.391,194.717 279.824,194.865 279.034 C 195.013 278.245,195.056 277.520,194.959 277.424 C 194.863 277.328,194.664 277.895,194.515 278.685 M154.565 282.301 L 150.836 286.136 154.671 282.407 C 156.780 280.356,158.505 278.631,158.505 278.572 C 158.505 278.287,158.028 278.739,154.565 282.301 M213.217 281.416 C 213.197 281.632,213.604 283.137,214.123 284.759 C 214.641 286.382,215.081 287.532,215.101 287.316 C 215.122 287.099,214.714 285.595,214.196 283.972 C 213.678 282.350,213.237 281.200,213.217 281.416 M163.403 283.284 L 161.849 284.956 163.520 283.401 C 165.075 281.955,165.372 281.613,165.075 281.613 C 165.011 281.613,164.258 282.365,163.403 283.284 M290.757 282.292 C 291.568 282.377,292.896 282.377,293.707 282.292 C 294.518 282.208,293.854 282.138,292.232 282.138 C 290.610 282.138,289.946 282.208,290.757 282.292 M193.255 284.771 C 193.010 285.954,192.867 286.984,192.937 287.060 C 193.165 287.306,193.954 283.935,193.825 283.267 C 193.757 282.911,193.500 283.588,193.255 284.771 M131.367 283.990 C 130.936 284.282,131.095 284.318,131.957 284.126 C 133.403 283.802,133.717 283.577,132.711 283.585 C 132.296 283.588,131.691 283.771,131.367 283.990 M148.851 287.611 L 147.296 289.282 148.968 287.727 C 150.522 286.282,150.820 285.939,150.522 285.939 C 150.458 285.939,149.706 286.691,148.851 287.611 M289.872 286.922 C 290.413 287.231,291.032 287.484,291.249 287.484 C 291.465 287.484,291.200 287.231,290.659 286.922 C 290.118 286.613,289.499 286.360,289.282 286.360 C 289.066 286.360,289.331 286.613,289.872 286.922 M93.609 287.119 C 92.799 287.378,92.764 287.440,93.412 287.467 C 93.845 287.485,94.464 287.329,94.789 287.119 C 95.478 286.674,94.999 286.674,93.609 287.119 M155.731 290.560 L 154.376 292.035 155.851 290.680 C 157.223 289.418,157.506 289.086,157.206 289.086 C 157.140 289.086,156.477 289.749,155.731 290.560 M310.029 292.120 C 310.624 292.211,311.598 292.211,312.193 292.120 C 312.788 292.030,312.301 291.957,311.111 291.957 C 309.921 291.957,309.435 292.030,310.029 292.120 M140.413 295.575 C 139.458 296.549,138.764 297.345,138.873 297.345 C 138.981 297.345,139.851 296.549,140.806 295.575 C 141.762 294.602,142.455 293.805,142.347 293.805 C 142.239 293.805,141.368 294.602,140.413 295.575 M147.665 298.230 L 146.509 299.508 147.788 298.353 C 148.979 297.276,149.247 296.952,148.943 296.952 C 148.875 296.952,148.300 297.527,147.665 298.230 M135.871 300.197 L 134.317 301.868 135.988 300.313 C 137.543 298.868,137.841 298.525,137.543 298.525 C 137.479 298.525,136.726 299.277,135.871 300.197 M182.933 300.354 C 182.711 301.187,182.434 302.665,182.318 303.638 C 182.199 304.638,182.430 304.040,182.851 302.262 C 183.606 299.065,183.670 297.584,182.933 300.354 M83.972 304.031 C 85.475 305.546,86.793 306.785,86.901 306.785 C 87.009 306.785,85.868 305.546,84.366 304.031 C 82.863 302.517,81.545 301.278,81.437 301.278 C 81.329 301.278,82.470 302.517,83.972 304.031 M131.160 304.523 L 128.417 307.375 131.268 304.632 C 133.917 302.085,134.300 301.672,134.011 301.672 C 133.951 301.672,132.668 302.955,131.160 304.523 M139.405 306.096 L 138.250 307.375 139.528 306.219 C 140.720 305.143,140.987 304.818,140.683 304.818 C 140.616 304.818,140.040 305.393,139.405 306.096 M181.563 306.834 C 181.236 308.473,181.553 308.791,181.908 307.178 C 182.057 306.498,182.097 305.860,181.997 305.760 C 181.897 305.659,181.702 306.143,181.563 306.834 M220.899 308.948 C 221.312 310.819,221.876 311.943,221.589 310.324 C 221.455 309.567,221.186 308.682,220.992 308.358 C 220.761 307.972,220.728 308.177,220.899 308.948 M89.282 308.874 C 89.282 308.942,89.857 309.517,90.560 310.153 L 91.839 311.308 90.684 310.029 C 89.607 308.838,89.282 308.570,89.282 308.874 M294.964 310.226 L 293.609 311.701 295.084 310.346 C 295.895 309.600,296.559 308.936,296.559 308.871 C 296.559 308.570,296.226 308.853,294.964 310.226 M122.507 312.783 L 119.764 315.634 122.616 312.892 C 125.264 310.344,125.647 309.931,125.358 309.931 C 125.298 309.931,124.015 311.214,122.507 312.783 M131.145 313.963 L 129.990 315.241 131.268 314.086 C 132.460 313.009,132.727 312.684,132.424 312.684 C 132.356 312.684,131.781 313.260,131.145 313.963 M186.262 317.236 C 185.892 319.101,185.665 320.702,185.757 320.795 C 185.850 320.888,186.229 319.438,186.599 317.573 C 186.970 315.708,187.197 314.106,187.104 314.013 C 187.011 313.921,186.632 315.371,186.262 317.236 M115.241 319.567 C 113.629 321.190,112.399 322.517,112.507 322.517 C 112.616 322.517,114.023 321.190,115.634 319.567 C 117.246 317.945,118.476 316.618,118.368 316.618 C 118.260 316.618,116.852 317.945,115.241 319.567 M121.916 322.812 L 119.371 325.467 122.026 322.922 C 123.486 321.522,124.680 320.327,124.680 320.267 C 124.680 319.978,124.280 320.346,121.916 322.812 M259.587 333.530 C 258.830 333.945,258.352 334.291,258.525 334.300 C 258.942 334.322,261.160 333.168,261.160 332.930 C 261.160 332.672,261.137 332.681,259.587 333.530 M175.232 336.382 C 174.848 337.555,174.185 341.474,174.344 341.633 C 174.440 341.730,174.784 340.477,175.108 338.849 C 175.628 336.235,175.691 334.981,175.232 336.382 M181.224 348.361 C 181.713 348.455,182.421 348.451,182.797 348.353 C 183.173 348.254,182.773 348.177,181.908 348.182 C 181.042 348.186,180.735 348.267,181.224 348.361 M189.656 348.768 C 191.538 348.840,194.723 348.841,196.735 348.769 C 198.747 348.698,197.207 348.639,193.314 348.638 C 189.420 348.638,187.774 348.697,189.656 348.768 "
              stroke="none"
              fill="#fce3cc"
              fill-rule="evenodd"
            ></path>
            <path
              id="path4"
              d="M119.780 48.908 C 119.348 49.223,119.217 49.538,119.455 49.685 C 119.675 49.821,120.172 49.582,120.559 49.155 C 121.360 48.270,120.866 48.113,119.780 48.908 M109.513 58.309 L 108.358 59.587 109.636 58.432 C 110.828 57.355,111.095 57.030,110.791 57.030 C 110.724 57.030,110.148 57.606,109.513 58.309 M104.800 62.635 L 103.245 64.307 104.916 62.752 C 106.471 61.306,106.769 60.964,106.471 60.964 C 106.407 60.964,105.655 61.716,104.800 62.635 M89.529 69.715 C 89.222 70.202,88.866 71.042,88.737 71.583 C 88.590 72.202,88.735 72.057,89.128 71.190 C 89.471 70.433,89.933 69.592,90.155 69.322 C 90.377 69.051,90.452 68.830,90.323 68.830 C 90.193 68.830,89.836 69.228,89.529 69.715 M92.607 74.828 L 91.052 76.500 92.724 74.945 C 93.643 74.090,94.395 73.337,94.395 73.273 C 94.395 72.976,94.053 73.273,92.607 74.828 M37.887 180.728 C 37.889 182.242,37.960 182.813,38.045 181.997 C 38.130 181.181,38.129 179.942,38.042 179.244 C 37.955 178.546,37.885 179.213,37.887 180.728 M37.884 187.217 C 37.884 188.623,37.955 189.199,38.043 188.496 C 38.130 187.793,38.130 186.642,38.043 185.939 C 37.955 185.236,37.884 185.811,37.884 187.217 M243.166 191.044 C 243.977 191.129,245.305 191.129,246.116 191.044 C 246.927 190.959,246.264 190.889,244.641 190.889 C 243.019 190.889,242.355 190.959,243.166 191.044 M342.380 197.837 C 342.044 198.486,341.858 199.017,341.966 199.017 C 342.074 199.017,342.437 198.486,342.773 197.837 C 343.108 197.188,343.295 196.657,343.186 196.657 C 343.078 196.657,342.715 197.188,342.380 197.837 M341.567 201.812 C 341.419 202.051,341.891 202.803,342.617 203.483 L 343.935 204.720 342.819 203.473 C 342.206 202.788,341.822 202.036,341.966 201.802 C 342.111 201.568,342.141 201.377,342.033 201.377 C 341.924 201.377,341.715 201.572,341.567 201.812 M340.387 209.833 C 340.411 213.088,340.476 213.376,341.200 213.411 C 341.768 213.439,341.799 213.405,341.313 213.288 C 340.755 213.153,340.616 212.537,340.500 209.709 L 340.361 206.293 340.387 209.833 M214.856 217.502 C 214.856 218.476,214.933 218.874,215.027 218.387 C 215.121 217.901,215.121 217.104,215.027 216.618 C 214.933 216.131,214.856 216.529,214.856 217.502 M50.934 221.436 C 52.219 222.734,53.358 223.795,53.466 223.795 C 53.574 223.795,52.612 222.734,51.327 221.436 C 50.043 220.138,48.904 219.076,48.796 219.076 C 48.687 219.076,49.650 220.138,50.934 221.436 M327.729 220.527 C 328.107 220.626,328.727 220.626,329.105 220.527 C 329.484 220.428,329.174 220.347,328.417 220.347 C 327.660 220.347,327.350 220.428,327.729 220.527 M214.848 222.026 C 214.853 222.891,214.933 223.199,215.027 222.709 C 215.122 222.220,215.118 221.512,215.020 221.136 C 214.921 220.760,214.844 221.160,214.848 222.026 M299.803 222.887 C 300.182 222.986,300.801 222.986,301.180 222.887 C 301.559 222.788,301.249 222.707,300.492 222.707 C 299.735 222.707,299.425 222.788,299.803 222.887 M299.017 235.473 C 299.395 235.572,300.015 235.572,300.393 235.473 C 300.772 235.374,300.462 235.293,299.705 235.293 C 298.948 235.293,298.638 235.374,299.017 235.473 M286.852 240.315 C 286.852 241.721,286.923 242.296,287.010 241.593 C 287.097 240.890,287.097 239.739,287.010 239.036 C 286.923 238.333,286.852 238.909,286.852 240.315 M58.981 240.020 C 59.945 241.047,60.786 241.888,60.849 241.888 C 61.144 241.888,60.832 241.535,59.095 239.905 L 57.227 238.151 58.981 240.020 M328.589 243.559 L 327.434 244.838 328.712 243.683 C 329.415 243.047,329.990 242.472,329.990 242.404 C 329.990 242.100,329.666 242.368,328.589 243.559 M342.694 245.821 C 342.694 247.011,342.768 247.498,342.858 246.903 C 342.948 246.308,342.948 245.334,342.858 244.739 C 342.768 244.145,342.694 244.631,342.694 245.821 M300.885 245.624 C 301.619 246.382,302.308 247.001,302.416 247.001 C 302.524 247.001,302.012 246.382,301.278 245.624 C 300.544 244.867,299.856 244.248,299.747 244.248 C 299.639 244.248,300.151 244.867,300.885 245.624 M342.282 249.951 C 342.286 250.816,342.367 251.124,342.461 250.635 C 342.555 250.145,342.552 249.437,342.453 249.061 C 342.355 248.685,342.278 249.086,342.282 249.951 M65.290 249.877 C 65.290 249.945,65.865 250.520,66.568 251.156 L 67.847 252.311 66.691 251.032 C 65.615 249.841,65.290 249.573,65.290 249.877 M190.536 258.111 C 189.511 259.243,189.499 259.283,190.427 258.469 C 191.399 257.614,191.486 257.601,191.661 258.274 C 191.768 258.686,191.831 258.532,191.807 257.915 C 191.784 257.321,191.749 256.834,191.728 256.834 C 191.708 256.834,191.171 257.408,190.536 258.111 M286.424 259.980 C 286.424 260.737,286.505 261.047,286.603 260.669 C 286.702 260.290,286.702 259.671,286.603 259.292 C 286.505 258.913,286.424 259.223,286.424 259.980 M184.650 263.618 L 181.908 266.470 184.759 263.727 C 187.408 261.180,187.790 260.767,187.502 260.767 C 187.442 260.767,186.159 262.050,184.650 263.618 M263.127 262.463 C 263.127 262.531,263.702 263.106,264.405 263.742 L 265.683 264.897 264.528 263.618 C 263.451 262.427,263.127 262.159,263.127 262.463 M177.778 270.010 C 176.822 270.983,176.129 271.780,176.237 271.780 C 176.346 271.780,177.216 270.983,178.171 270.010 C 179.126 269.036,179.820 268.240,179.711 268.240 C 179.603 268.240,178.733 269.036,177.778 270.010 M93.215 272.893 C 93.540 273.094,94.248 273.376,94.789 273.521 C 95.472 273.704,95.592 273.673,95.182 273.419 C 94.857 273.219,94.149 272.936,93.609 272.792 C 92.925 272.609,92.805 272.640,93.215 272.893 M269.125 273.624 C 269.503 273.723,270.123 273.723,270.501 273.624 C 270.880 273.525,270.570 273.444,269.813 273.444 C 269.056 273.444,268.746 273.525,269.125 273.624 M169.111 278.368 L 166.962 280.629 169.223 278.480 C 171.324 276.482,171.665 276.106,171.373 276.106 C 171.312 276.106,170.294 277.124,169.111 278.368 M148.476 279.646 C 147.980 279.859,147.907 279.984,148.279 279.984 C 148.604 279.984,149.223 279.832,149.656 279.646 C 150.152 279.433,150.224 279.308,149.853 279.308 C 149.528 279.308,148.909 279.460,148.476 279.646 M153.392 282.989 C 151.781 284.612,150.551 285.939,150.659 285.939 C 150.767 285.939,152.174 284.612,153.786 282.989 C 155.397 281.367,156.627 280.039,156.519 280.039 C 156.411 280.039,155.004 281.367,153.392 282.989 M186.256 283.798 C 186.108 284.587,186.065 285.311,186.161 285.408 C 186.258 285.504,186.457 284.937,186.605 284.147 C 186.754 283.358,186.796 282.633,186.700 282.537 C 186.604 282.441,186.404 283.008,186.256 283.798 M285.415 282.661 C 285.059 283.017,285.082 284.276,285.447 284.502 C 285.610 284.602,285.742 284.170,285.742 283.542 C 285.742 282.913,285.728 282.399,285.710 282.399 C 285.692 282.399,285.559 282.517,285.415 282.661 M221.442 284.595 C 221.445 285.010,221.627 285.615,221.847 285.939 C 222.138 286.370,222.175 286.211,221.982 285.349 C 221.659 283.903,221.434 283.589,221.442 284.595 M155.924 290.757 L 154.769 292.035 156.047 290.880 C 157.239 289.803,157.506 289.479,157.202 289.479 C 157.135 289.479,156.559 290.054,155.924 290.757 M77.876 291.070 C 77.445 291.362,77.604 291.398,78.466 291.205 C 79.912 290.882,80.226 290.657,79.220 290.665 C 78.805 290.668,78.201 290.851,77.876 291.070 M216.167 293.241 C 216.695 295.342,217.451 297.521,217.476 297.012 C 217.510 296.330,216.322 292.232,216.090 292.232 C 215.994 292.232,216.028 292.686,216.167 293.241 M83.769 303.343 C 86.036 305.669,87.939 307.571,87.997 307.571 C 88.281 307.571,87.801 307.067,83.874 303.238 L 79.646 299.115 83.769 303.343 M189.796 301.890 C 189.648 302.679,189.605 303.404,189.701 303.500 C 189.797 303.596,189.997 303.029,190.145 302.240 C 190.293 301.450,190.336 300.726,190.240 300.630 C 190.144 300.534,189.944 301.101,189.796 301.890 M123.682 311.209 L 121.731 313.274 123.795 311.323 C 124.931 310.249,125.860 309.320,125.860 309.258 C 125.860 308.964,125.496 309.291,123.682 311.209 M121.916 323.206 L 119.371 325.860 122.026 323.315 C 124.492 320.951,124.860 320.551,124.571 320.551 C 124.510 320.551,123.316 321.745,121.916 323.206 M177.603 324.309 C 177.455 325.098,177.412 325.823,177.509 325.919 C 177.605 326.015,177.805 325.448,177.953 324.659 C 178.101 323.869,178.143 323.145,178.047 323.049 C 177.951 322.953,177.751 323.520,177.603 324.309 M183.542 331.072 C 183.442 331.234,183.262 332.252,183.142 333.333 C 182.922 335.311,183.082 334.984,183.670 332.252 C 183.974 330.838,183.931 330.440,183.542 331.072 M182.323 336.895 C 182.175 337.684,182.132 338.409,182.228 338.505 C 182.324 338.601,182.524 338.034,182.672 337.245 C 182.820 336.455,182.863 335.731,182.767 335.635 C 182.671 335.539,182.471 336.106,182.323 336.895 M199.902 348.354 C 200.280 348.453,200.900 348.453,201.278 348.354 C 201.657 348.255,201.347 348.174,200.590 348.174 C 199.833 348.174,199.523 348.255,199.902 348.354 "
              stroke="none"
              fill="#fcbc88"
              fill-rule="evenodd"
            ></path>
          </g>
        </svg>